<svg width="180" height="60" viewBox="0 0 280 96" fill="none" xmlns="http://www.w3.org/2000/svg">
<path d="M55.32 48.456C55.6613 50.6747 55.96 54.2587 56.216 59.208C56.5573 64.072 56.6853 69.5333 56.6 75.592C56.5147 81.6507 56.088 86.0453 55.32 88.776C54.7227 90.824 53.6133 92.3173 51.992 93.256C50.456 94.1947 48.664 94.5787 46.616 94.408C44.6533 94.3227 42.52 94.1947 40.216 94.024C34.84 93.4267 30.9147 93.4267 28.44 94.024C24.1733 95.048 19.8213 95.56 15.384 95.56C9.496 95.56 5.48533 94.5787 3.352 92.616C2.15733 91.5067 1.64533 90.1413 1.816 88.52C2.24267 85.5333 2.37067 81.4373 2.2 76.232C2.11467 70.9413 1.816 66.0773 1.304 61.64C0.962667 58.1413 2.24267 55.4533 5.144 53.576C7.192 52.1253 9.70933 51.4 12.696 51.4C15.6827 51.4 18.456 52.0827 21.016 53.448C28.696 57.6293 32.536 61.768 32.536 65.864C32.6213 68.5093 31.3413 70.5147 28.696 71.88C26.7333 72.9893 24.0027 73.288 20.504 72.776H20.248C19.48 73.032 19.0107 73.5013 18.84 74.184C18.6693 74.7813 18.7547 75.2507 19.096 75.592C19.608 76.1893 20.6747 76.5733 22.296 76.744C23.9173 76.8293 25.5387 76.5733 27.16 75.976C29.72 75.0373 31.9813 73.6293 33.944 71.752C35.992 69.7893 37.144 67.7413 37.4 65.608C37.8267 62.28 35.736 58.952 31.128 55.624C26.9467 52.7227 21.0587 49.7787 13.464 46.792C11.2453 45.9387 9.58133 45.2987 8.472 44.872C7.448 44.36 6.25333 43.6773 4.888 42.824C3.608 41.9707 2.75467 41.0747 2.328 40.136C1.98667 39.112 1.944 37.9173 2.2 36.552C2.54133 34.5893 2.49867 29.5547 2.072 21.448C1.73067 16.6693 1.60267 12.7013 1.688 9.544C1.77333 6.38667 2.2 4.296 2.968 3.272C4.07733 1.90666 5.784 1.13866 8.088 0.967995C10.4773 0.711993 13.3787 0.797328 16.792 1.224C20.4613 1.56533 23.448 1.77866 25.752 1.864C29.2507 2.03466 34.2 1.73599 40.6 0.967995C43.928 0.455996 46.8293 0.242663 49.304 0.327995C51.864 0.413328 53.656 1.05333 54.68 2.24799C55.448 3.01599 55.9173 4.03999 56.088 5.31999C56.344 6.6 56.3867 7.752 56.216 8.77599C56.1307 9.71466 55.8747 11.08 55.448 12.872C54.8507 16.2 54.552 18.632 54.552 20.168C54.6373 21.448 54.9787 23.4107 55.576 26.056C56.1733 27.9333 56.4293 29.9387 56.344 32.072C56.2587 34.12 55.5333 35.656 54.168 36.68C51.864 38.5573 46.9573 37.7893 39.448 34.376C32.6213 31.2187 29.1227 28.2747 28.952 25.544C28.8667 23.5813 30.0187 21.704 32.408 19.912C33.3467 19.144 33.9013 18.632 34.072 18.376C34.328 18.0347 34.328 17.608 34.072 17.096C33.9013 16.4987 33.2613 16.1573 32.152 16.072C30.4453 15.9867 28.6107 16.3707 26.648 17.224C24.6853 18.0773 23.4053 19.0587 22.808 20.168C22.3813 20.936 22.0827 21.6187 21.912 22.216C21.8267 22.728 21.8693 23.496 22.04 24.52C22.296 25.4587 23.064 26.568 24.344 27.848C25.7093 29.128 27.6293 30.4933 30.104 31.944C32.2373 33.224 35.736 34.9733 40.6 37.192C43.0747 38.3013 44.9093 39.1547 46.104 39.752C47.384 40.3493 48.8347 41.16 50.456 42.184C52.0773 43.208 53.2293 44.232 53.912 45.256C54.68 46.1947 55.1493 47.2613 55.32 48.456ZM51.864 87.88C52.376 86.0027 52.7173 83.144 52.888 79.304C53.144 75.464 53.1867 71.5813 53.016 67.656C52.9307 63.6453 52.76 59.976 52.504 56.648C52.3333 53.2347 52.12 50.632 51.864 48.84C51.7787 48.1573 51.3947 47.4747 50.712 46.792C50.0293 46.1093 48.9627 45.384 47.512 44.616C46.0613 43.7627 44.824 43.08 43.8 42.568C42.776 42.056 41.24 41.3307 39.192 40.392C34.1573 38.1733 30.488 36.3813 28.184 35.016C23.576 32.1147 20.5893 29.384 19.224 26.824C17.8587 24.1787 17.9867 21.4053 19.608 18.504C20.632 16.712 22.4667 15.2187 25.112 14.024C27.7573 12.8293 30.1893 12.3173 32.408 12.488C35.0533 12.6587 36.76 13.768 37.528 15.816C37.6987 16.4133 37.784 17.0107 37.784 17.608C37.8693 18.12 37.8267 18.5893 37.656 19.016C37.4853 19.4427 37.3147 19.8267 37.144 20.168C36.9733 20.5093 36.6747 20.8507 36.248 21.192C35.9067 21.5333 35.608 21.7893 35.352 21.96C35.1813 22.1307 34.9253 22.3867 34.584 22.728C33.1333 23.752 32.4507 24.6053 32.536 25.288C32.6213 25.6293 32.9627 26.0987 33.56 26.696C34.1573 27.208 35.1387 27.9333 36.504 28.872C37.9547 29.7253 39.6187 30.5787 41.496 31.432C43.3733 32.2 45.1227 32.84 46.744 33.352C48.3653 33.7787 49.56 33.992 50.328 33.992C51.096 33.992 51.6507 33.9493 51.992 33.864C52.4187 33.5227 52.6747 33.0107 52.76 32.328C52.8453 31.6453 52.8027 30.9627 52.632 30.28C52.5467 29.512 52.376 28.36 52.12 26.824C51.4373 24.008 51.0533 21.832 50.968 20.296C50.968 18.4187 51.3093 15.7307 51.992 12.232C52.8453 7.96533 52.888 5.40533 52.12 4.55199C51.352 3.78399 47.64 3.78399 40.984 4.55199C34.328 5.31999 29.208 5.61866 25.624 5.448C23.2347 5.36266 20.2053 5.14933 16.536 4.808C13.72 4.46666 11.3307 4.33866 9.368 4.424C7.49067 4.424 6.296 4.76533 5.784 5.448C5.18667 6.38666 5.144 11.6773 5.656 21.32C6.08267 29.6827 6.08267 34.9733 5.656 37.192C5.4 38.3013 5.912 39.2827 7.192 40.136C8.472 40.9893 10.9893 42.1413 14.744 43.592C22.5947 46.5787 28.696 49.608 33.048 52.68C38.936 56.8613 41.5387 61.3413 40.856 66.12C40.5147 68.936 39.1067 71.5387 36.632 73.928C34.2427 76.3173 31.512 78.1093 28.44 79.304C26.648 80.072 24.5147 80.3707 22.04 80.2C19.5653 80.0293 17.7307 79.304 16.536 78.024C15.1707 76.6587 14.7867 74.9947 15.384 73.032C16.152 70.8133 17.6453 69.5333 19.864 69.192C19.9493 69.192 20.3333 69.2347 21.016 69.32C23.6613 69.6613 25.6667 69.4907 27.032 68.808C28.3973 68.04 29.08 67.1013 29.08 65.992C29.08 65.3947 28.9093 64.7547 28.568 64.072C28.2267 63.304 27.2453 62.2373 25.624 60.872C24.088 59.4213 21.9547 57.9707 19.224 56.52C17.3467 55.496 15.2133 54.984 12.824 54.984C10.52 54.984 8.6 55.496 7.064 56.52C5.35733 57.6293 4.632 59.208 4.888 61.256C5.31467 65.5227 5.57067 70.3013 5.656 75.592C5.82667 80.8827 5.74133 85.3627 5.4 89.032C5.31467 89.4587 5.44267 89.8 5.784 90.056C7.064 91.2507 9.92267 91.8907 14.36 91.976C18.7973 92.0613 23.2347 91.592 27.672 90.568C30.488 89.8853 34.7973 89.8853 40.6 90.568C44.0987 90.9947 46.744 91.0373 48.536 90.696C50.328 90.3547 51.4373 89.416 51.864 87.88ZM112.501 89.288C113.098 91.848 113.184 93.512 112.757 94.28C112.16 95.1333 110.368 95.56 107.381 95.56C105.674 95.56 103.626 95.3893 101.237 95.048C98.8477 94.792 96.9703 94.536 95.605 94.28C94.325 94.024 93.557 93.896 93.301 93.896C91.6797 93.4693 90.8263 92.3173 90.741 90.44C90.741 88.4773 91.0823 86.2587 91.765 83.784C92.3623 81.3093 92.7463 79.3467 92.917 77.896C93.173 76.36 93.2583 74.3973 93.173 72.008C93.173 69.6187 92.789 67.6133 92.021 65.992C90.997 63.8587 89.589 62.2373 87.797 61.128C86.0903 60.0187 84.1703 59.5493 82.037 59.72C80.3303 59.8907 78.837 60.4027 77.557 61.256C76.3623 62.1093 75.5517 63.176 75.125 64.456C74.613 66.1627 74.6557 67.656 75.253 68.936C75.8503 70.216 76.661 71.112 77.685 71.624C78.3677 71.88 78.7517 71.9227 78.837 71.752C79.093 71.4107 78.9223 70.8133 78.325 69.96C76.8743 67.7413 76.7037 65.8213 77.813 64.2C78.2397 63.6027 78.7517 63.0907 79.349 62.664C80.0317 62.2373 80.757 61.9387 81.525 61.768C82.293 61.512 83.061 61.4693 83.829 61.64C84.341 61.7253 84.853 61.896 85.365 62.152C85.9623 62.408 86.6023 62.8347 87.285 63.432C88.053 63.944 88.7357 64.7973 89.333 65.992C90.0157 67.1013 90.5703 68.4667 90.997 70.088C91.9357 74.5253 91.5943 79.56 89.973 85.192C88.3517 90.824 86.4317 94.0667 84.213 94.92C83.0183 95.3467 79.3917 95.3467 73.333 94.92C67.3597 94.4933 63.7757 94.4507 62.581 94.792C61.557 95.048 60.7037 94.8347 60.021 94.152C59.0823 93.384 58.5703 91.848 58.485 89.544C58.3997 87.24 58.613 83.9973 59.125 79.816C59.7223 72.4773 59.893 67.4 59.637 64.584C59.2103 61.1707 58.997 58.312 58.997 56.008C58.997 53.704 59.637 51.8693 60.917 50.504C62.197 49.1387 64.3303 48.1573 67.317 47.56C68.4263 47.3893 70.3037 47.2613 72.949 47.176C74.485 47.0907 75.6797 47.0053 76.533 46.92C77.3863 46.8347 78.5383 46.7067 79.989 46.536C81.4397 46.28 82.6343 45.9387 83.573 45.512C84.597 45 85.6637 44.4027 86.773 43.72C87.9677 43.0373 89.0343 42.1413 89.973 41.032C90.9117 39.9227 91.765 38.6 92.533 37.064C93.4717 35.1013 93.941 33.1387 93.941 31.176C94.0263 29.2133 93.7277 27.5493 93.045 26.184C92.4477 24.7333 91.5943 23.496 90.485 22.472C89.0343 21.192 87.4557 20.3813 85.749 20.04C84.1277 19.6133 82.7197 19.784 81.525 20.552C78.965 22.0027 78.1117 24.008 78.965 26.568C79.221 27.336 79.5623 27.976 79.989 28.488C80.501 29 80.9703 29.256 81.397 29.256C81.397 29 81.269 28.5733 81.013 27.976C80.3303 26.0987 80.2023 24.6907 80.629 23.752C80.9703 23.0693 81.525 22.6 82.293 22.344C84.2557 21.7467 86.133 22.1733 87.925 23.624C90.3997 25.7573 91.4237 28.6587 90.997 32.328C90.6557 34.8027 88.053 37.192 83.189 39.496C79.6903 41.1173 75.509 42.5253 70.645 43.72C65.8663 44.8293 62.7517 44.9147 61.301 43.976C60.4477 43.464 59.9357 42.5253 59.765 41.16C59.5943 39.7093 59.5943 38.344 59.765 37.064C59.9357 35.784 60.277 33.7787 60.789 31.048C61.557 26.6107 61.941 23.624 61.941 22.088C61.7703 17.9067 61.3437 13.64 60.661 9.28799C60.2343 6.472 60.2343 4.68 60.661 3.91199C61.2583 2.80266 62.4957 2.16266 64.373 1.992C66.3357 1.82133 68.8957 1.86399 72.053 2.12C78.965 2.63199 84.5117 2.71733 88.693 2.376C90.8263 2.20533 93.5997 1.90666 97.013 1.48C100.256 0.88266 102.816 0.797328 104.693 1.224C106.57 1.65067 107.893 2.97333 108.661 5.19199C109.344 7.23999 109.557 14.3653 109.301 26.568C109.045 38.9413 109.002 49.096 109.173 57.032C109.344 69.2347 110.453 79.9867 112.501 89.288ZM94.325 90.44C96.373 90.8667 99.061 91.2507 102.389 91.592C105.717 91.9333 108.106 92.0613 109.557 91.976C109.472 91.6347 109.301 90.9947 109.045 90.056C106.912 80.4987 105.76 69.5333 105.589 57.16C105.418 49.3093 105.461 39.112 105.717 26.568C105.973 14.7067 105.802 7.96533 105.205 6.34399C104.864 5.32 104.352 4.76533 103.669 4.67999C103.072 4.50933 101.024 4.59466 97.525 4.936C94.1117 5.36266 91.253 5.66133 88.949 5.83199C84.597 6.17333 78.8797 6.13066 71.797 5.70399C66.8477 5.36266 64.117 5.36266 63.605 5.70399C63.605 5.78933 63.7757 6.77066 64.117 8.64799C64.7997 13.256 65.2263 17.6933 65.397 21.96C65.4823 23.752 65.0983 26.9947 64.245 31.688C63.221 37.32 62.9223 40.4773 63.349 41.16C64.373 41.5013 67.4023 40.9893 72.437 39.624C77.557 38.1733 81.6103 36.552 84.597 34.76C86.389 33.5653 87.3703 32.6267 87.541 31.944C87.797 29.4693 87.157 27.6347 85.621 26.44C85.109 25.928 84.5543 25.672 83.957 25.672C84.0423 25.928 84.1703 26.312 84.341 26.824C85.109 28.872 85.1943 30.408 84.597 31.432C84.085 32.2 83.2317 32.6693 82.037 32.84C81.0983 32.9253 80.2023 32.7547 79.349 32.328C78.4957 31.9013 77.7277 31.304 77.045 30.536C76.4477 29.6827 75.9357 28.744 75.509 27.72C74.8263 26.2693 74.8263 24.52 75.509 22.472C76.1917 20.424 77.5997 18.76 79.733 17.48C81.6103 16.2853 83.7437 15.944 86.133 16.456C88.6077 16.8827 90.8263 18.0347 92.789 19.912C94.2397 21.2773 95.3917 22.856 96.245 24.648C97.1837 26.44 97.6103 28.616 97.525 31.176C97.525 33.6507 96.885 36.168 95.605 38.728C94.581 40.8613 93.301 42.696 91.765 44.232C90.229 45.6827 88.7783 46.8347 87.413 47.688C86.133 48.456 84.469 49.096 82.421 49.608C80.4583 50.0347 78.8797 50.2907 77.685 50.376C76.5757 50.4613 75.0397 50.5467 73.077 50.632C70.6023 50.8027 68.8957 50.9733 67.957 51.144C66.677 51.3147 65.6957 51.5707 65.013 51.912C64.4157 52.168 63.861 52.5093 63.349 52.936C62.9223 53.3627 62.6663 54.088 62.581 55.112C62.581 56.136 62.581 57.288 62.581 58.568C62.6663 59.848 62.837 61.7253 63.093 64.2C63.4343 67.272 63.2637 72.5627 62.581 80.072C62.069 86.3013 61.941 90.0133 62.197 91.208C63.9037 90.8667 67.701 90.9093 73.589 91.336C79.1357 91.7627 82.2503 91.848 82.933 91.592C84.1277 90.9947 85.4077 88.3493 86.773 83.656C88.1383 78.8773 88.3943 74.6107 87.541 70.856C86.6877 67.3573 85.2797 65.4373 83.317 65.096C82.2077 64.9253 81.3543 65.3093 80.757 66.248C80.5863 66.5893 80.757 67.1867 81.269 68.04C82.7197 70.1733 82.933 72.0507 81.909 73.672C81.3117 74.5253 80.501 75.08 79.477 75.336C78.453 75.5067 77.3437 75.336 76.149 74.824C74.357 73.9707 72.949 72.4773 71.925 70.344C70.9863 68.2107 70.9437 65.9067 71.797 63.432C72.3943 61.384 73.589 59.72 75.381 58.44C77.2583 57.16 79.3917 56.4347 81.781 56.264C83.4023 56.0933 84.981 56.264 86.517 56.776C88.1383 57.2027 89.7597 58.0987 91.381 59.464C93.0023 60.744 94.2823 62.408 95.221 64.456C96.1597 66.4187 96.6717 68.7653 96.757 71.496C96.9277 74.1413 96.8423 76.3173 96.501 78.024C96.245 79.6453 95.8183 81.8213 95.221 84.552C94.5383 87.7947 94.2397 89.7573 94.325 90.44ZM168.206 59.72C167.865 67.2293 167.95 75.5067 168.462 84.552C168.718 88.9893 168.675 91.6347 168.334 92.488C167.737 94.1947 165.603 94.7493 161.934 94.152C160.227 93.896 158.435 93.384 156.558 92.616C154.766 91.848 152.931 90.7813 151.054 89.416C149.177 88.0507 147.513 86.2587 146.062 84.04C144.611 81.8213 143.673 79.304 143.246 76.488C143.246 77.0853 143.246 77.5973 143.246 78.024C143.246 80.2427 143.587 82.9733 144.27 86.216C144.611 87.8373 144.782 88.9893 144.782 89.672C144.867 90.3547 144.825 91.336 144.654 92.616C144.398 93.7253 143.63 94.408 142.35 94.664C141.07 94.92 138.937 95.0053 135.95 94.92C133.134 94.8347 130.403 94.8347 127.758 94.92C125.625 95.0907 124.046 95.176 123.022 95.176C119.865 95.176 117.603 94.7067 116.238 93.768C114.958 93 114.233 90.3973 114.062 85.96C113.977 81.4373 114.233 73.928 114.83 63.432C115.769 46.4507 116.025 34.9307 115.598 28.872C114.659 17.5227 114.233 10.312 114.318 7.24C114.489 4.08266 115.257 2.16266 116.622 1.48C117.646 1.05333 118.969 0.79733 120.59 0.711998C122.211 0.626661 124.473 1.09599 127.374 2.12C130.275 3.144 133.049 4.808 135.694 7.112C137.059 8.30667 138.211 9.97066 139.15 12.104C140.089 14.152 140.729 15.9867 141.07 17.608C141.411 19.144 141.838 21.4053 142.35 24.392C142.691 26.3547 142.947 27.848 143.118 28.872C143.289 29.8107 143.587 31.0053 144.014 32.456C144.441 33.8213 144.91 34.9307 145.422 35.784C145.934 36.6373 146.574 37.2773 147.342 37.704C149.39 38.8987 151.225 38.7707 152.846 37.32C153.443 36.7227 153.87 36.0827 154.126 35.4C154.467 34.632 154.595 34.0773 154.51 33.736L153.998 33.864C152.889 33.6933 152.035 33.5653 151.438 33.48C150.926 33.3947 150.201 33.224 149.262 32.968C148.323 32.6267 147.555 32.328 146.958 32.072C146.361 31.7307 145.763 31.2613 145.166 30.664C144.569 30.0667 144.057 29.4267 143.63 28.744C142.521 26.7813 142.051 20.3387 142.222 9.41599C142.222 6.856 142.222 5.36266 142.222 4.936C142.051 3.74133 142.35 2.80266 143.118 2.12C143.63 1.608 144.355 1.30933 145.294 1.224C146.233 1.05333 147.086 1.01066 147.854 1.09599C148.707 1.18133 149.987 1.39466 151.694 1.73599L153.358 1.992C155.235 2.16266 158.222 2.03466 162.318 1.60799C165.305 1.26666 167.139 1.35199 167.822 1.864C168.419 2.29066 168.803 5.40533 168.974 11.208C169.145 17.0107 169.145 23.7947 168.974 31.56C168.803 39.3253 168.633 45.5973 168.462 50.376C168.291 55.1547 168.206 58.2693 168.206 59.72ZM164.878 84.808C164.366 75.592 164.281 67.1867 164.622 59.592C165.049 50.2907 165.305 39.624 165.39 27.592C165.475 15.4747 165.39 7.92266 165.134 4.936C164.793 4.936 163.982 5.02133 162.702 5.19199C158.35 5.61866 155.065 5.70399 152.846 5.448L151.182 5.19199C147.854 4.68 145.977 4.50933 145.55 4.67999C145.721 5.192 145.806 6.77066 145.806 9.41599C145.635 19.7413 145.934 25.5867 146.702 26.952C147.299 27.976 148.153 28.7013 149.262 29.128C150.371 29.5547 152.121 29.9387 154.51 30.28L155.15 30.408C156.601 30.5787 157.539 31.3893 157.966 32.84C158.222 34.0347 158.051 35.3573 157.454 36.808C156.857 38.2587 155.918 39.4533 154.638 40.392C151.907 42.5253 148.878 42.6533 145.55 40.776C144.185 39.9227 142.99 38.6 141.966 36.808C141.027 34.9307 140.387 33.224 140.046 31.688C139.705 30.152 139.321 27.8907 138.894 24.904C138.553 22.9413 138.254 21.448 137.998 20.424C137.827 19.3147 137.529 17.992 137.102 16.456C136.675 14.8347 136.121 13.512 135.438 12.488C134.841 11.3787 134.158 10.4827 133.39 9.8C131.598 8.26399 129.806 7.06933 128.014 6.216C126.222 5.36266 124.643 4.85066 123.278 4.67999C121.998 4.424 120.889 4.33866 119.95 4.424C119.097 4.424 118.499 4.50933 118.158 4.67999C117.561 5.61866 117.859 13.5973 119.054 28.616C119.566 34.8453 119.353 46.4933 118.414 63.56C117.475 80.2853 117.433 89.416 118.286 90.952C119.395 91.5493 122.467 91.72 127.502 91.464C130.147 91.2933 133.006 91.2507 136.078 91.336C138.894 91.4213 140.643 91.3787 141.326 91.208C141.411 90.5253 141.241 89.1173 140.814 86.984C140.046 83.4853 139.662 80.4987 139.662 78.024C139.662 74.5253 139.022 71.3253 137.742 68.424C136.547 65.4373 135.097 63.6027 133.39 62.92C129.123 61.2987 126.734 59.08 126.222 56.264C125.881 54.472 126.478 52.8933 128.014 51.528C129.891 49.736 132.494 49.5653 135.822 51.016C136.761 51.3573 137.657 51.912 138.51 52.68C139.449 53.448 140.558 54.6 141.838 56.136C143.118 57.672 144.185 59.848 145.038 62.664C145.891 65.48 146.318 68.7227 146.318 72.392C146.403 79.048 149.134 84.0827 154.51 87.496C156.473 88.776 158.478 89.672 160.526 90.184C162.574 90.696 164.11 90.9093 165.134 90.824C165.134 90.056 165.049 88.0507 164.878 84.808ZM142.862 73.032C142.777 72.776 142.734 72.5627 142.734 72.392C142.734 69.2347 142.393 66.4613 141.71 64.072C141.113 61.6827 140.302 59.848 139.278 58.568C138.254 57.2027 137.358 56.2213 136.59 55.624C135.822 55.0267 135.097 54.5573 134.414 54.216C133.561 53.8747 132.707 53.704 131.854 53.704C131.171 53.704 130.659 53.832 130.318 54.088C129.806 54.6 129.593 55.112 129.678 55.624C129.763 56.2213 130.233 56.904 131.086 57.672C132.025 58.3547 133.219 58.9947 134.67 59.592C136.718 60.4453 138.425 62.1093 139.79 64.584C141.241 67.0587 142.265 69.8747 142.862 73.032ZM225.256 89.288C225.853 91.848 225.939 93.512 225.512 94.28C224.915 95.1333 223.123 95.56 220.136 95.56C218.429 95.56 216.381 95.3893 213.992 95.048C211.603 94.792 209.725 94.536 208.36 94.28C207.08 94.024 206.312 93.896 206.056 93.896C204.435 93.4693 203.581 92.3173 203.496 90.44C203.496 88.4773 203.837 86.2587 204.52 83.784C205.117 81.3093 205.501 79.3467 205.672 77.896C205.928 76.36 206.013 74.3973 205.928 72.008C205.928 69.6187 205.544 67.6133 204.776 65.992C203.752 63.8587 202.344 62.2373 200.552 61.128C198.845 60.0187 196.925 59.5493 194.792 59.72C193.085 59.8907 191.592 60.4027 190.312 61.256C189.117 62.1093 188.307 63.176 187.88 64.456C187.368 66.1627 187.411 67.656 188.008 68.936C188.605 70.216 189.416 71.112 190.44 71.624C191.123 71.88 191.507 71.9227 191.592 71.752C191.848 71.4107 191.677 70.8133 191.08 69.96C189.629 67.7413 189.459 65.8213 190.568 64.2C190.995 63.6027 191.507 63.0907 192.104 62.664C192.787 62.2373 193.512 61.9387 194.28 61.768C195.048 61.512 195.816 61.4693 196.584 61.64C197.096 61.7253 197.608 61.896 198.12 62.152C198.717 62.408 199.357 62.8347 200.04 63.432C200.808 63.944 201.491 64.7973 202.088 65.992C202.771 67.1013 203.325 68.4667 203.752 70.088C204.691 74.5253 204.349 79.56 202.728 85.192C201.107 90.824 199.187 94.0667 196.968 94.92C195.773 95.3467 192.147 95.3467 186.088 94.92C180.115 94.4933 176.531 94.4507 175.336 94.792C174.312 95.048 173.459 94.8347 172.776 94.152C171.837 93.384 171.325 91.848 171.24 89.544C171.155 87.24 171.368 83.9973 171.88 79.816C172.477 72.4773 172.648 67.4 172.392 64.584C171.965 61.1707 171.752 58.312 171.752 56.008C171.752 53.704 172.392 51.8693 173.672 50.504C174.952 49.1387 177.085 48.1573 180.072 47.56C181.181 47.3893 183.059 47.2613 185.704 47.176C187.24 47.0907 188.435 47.0053 189.288 46.92C190.141 46.8347 191.293 46.7067 192.744 46.536C194.195 46.28 195.389 45.9387 196.328 45.512C197.352 45 198.419 44.4027 199.528 43.72C200.723 43.0373 201.789 42.1413 202.728 41.032C203.667 39.9227 204.52 38.6 205.288 37.064C206.227 35.1013 206.696 33.1387 206.696 31.176C206.781 29.2133 206.483 27.5493 205.8 26.184C205.203 24.7333 204.349 23.496 203.24 22.472C201.789 21.192 200.211 20.3813 198.504 20.04C196.883 19.6133 195.475 19.784 194.28 20.552C191.72 22.0027 190.867 24.008 191.72 26.568C191.976 27.336 192.317 27.976 192.744 28.488C193.256 29 193.725 29.256 194.152 29.256C194.152 29 194.024 28.5733 193.768 27.976C193.085 26.0987 192.957 24.6907 193.384 23.752C193.725 23.0693 194.28 22.6 195.048 22.344C197.011 21.7467 198.888 22.1733 200.68 23.624C203.155 25.7573 204.179 28.6587 203.752 32.328C203.411 34.8027 200.808 37.192 195.944 39.496C192.445 41.1173 188.264 42.5253 183.4 43.72C178.621 44.8293 175.507 44.9147 174.056 43.976C173.203 43.464 172.691 42.5253 172.52 41.16C172.349 39.7093 172.349 38.344 172.52 37.064C172.691 35.784 173.032 33.7787 173.544 31.048C174.312 26.6107 174.696 23.624 174.696 22.088C174.525 17.9067 174.099 13.64 173.416 9.28799C172.989 6.472 172.989 4.68 173.416 3.91199C174.013 2.80266 175.251 2.16266 177.128 1.992C179.091 1.82133 181.651 1.86399 184.808 2.12C191.72 2.63199 197.267 2.71733 201.448 2.376C203.581 2.20533 206.355 1.90666 209.768 1.48C213.011 0.88266 215.571 0.797328 217.448 1.224C219.325 1.65067 220.648 2.97333 221.416 5.19199C222.099 7.23999 222.312 14.3653 222.056 26.568C221.8 38.9413 221.757 49.096 221.928 57.032C222.099 69.2347 223.208 79.9867 225.256 89.288ZM207.08 90.44C209.128 90.8667 211.816 91.2507 215.144 91.592C218.472 91.9333 220.861 92.0613 222.312 91.976C222.227 91.6347 222.056 90.9947 221.8 90.056C219.667 80.4987 218.515 69.5333 218.344 57.16C218.173 49.3093 218.216 39.112 218.472 26.568C218.728 14.7067 218.557 7.96533 217.96 6.34399C217.619 5.32 217.107 4.76533 216.424 4.67999C215.827 4.50933 213.779 4.59466 210.28 4.936C206.867 5.36266 204.008 5.66133 201.704 5.83199C197.352 6.17333 191.635 6.13066 184.552 5.70399C179.603 5.36266 176.872 5.36266 176.36 5.70399C176.36 5.78933 176.531 6.77066 176.872 8.64799C177.555 13.256 177.981 17.6933 178.152 21.96C178.237 23.752 177.853 26.9947 177 31.688C175.976 37.32 175.677 40.4773 176.104 41.16C177.128 41.5013 180.157 40.9893 185.192 39.624C190.312 38.1733 194.365 36.552 197.352 34.76C199.144 33.5653 200.125 32.6267 200.296 31.944C200.552 29.4693 199.912 27.6347 198.376 26.44C197.864 25.928 197.309 25.672 196.712 25.672C196.797 25.928 196.925 26.312 197.096 26.824C197.864 28.872 197.949 30.408 197.352 31.432C196.84 32.2 195.987 32.6693 194.792 32.84C193.853 32.9253 192.957 32.7547 192.104 32.328C191.251 31.9013 190.483 31.304 189.8 30.536C189.203 29.6827 188.691 28.744 188.264 27.72C187.581 26.2693 187.581 24.52 188.264 22.472C188.947 20.424 190.355 18.76 192.488 17.48C194.365 16.2853 196.499 15.944 198.888 16.456C201.363 16.8827 203.581 18.0347 205.544 19.912C206.995 21.2773 208.147 22.856 209 24.648C209.939 26.44 210.365 28.616 210.28 31.176C210.28 33.6507 209.64 36.168 208.36 38.728C207.336 40.8613 206.056 42.696 204.52 44.232C202.984 45.6827 201.533 46.8347 200.168 47.688C198.888 48.456 197.224 49.096 195.176 49.608C193.213 50.0347 191.635 50.2907 190.44 50.376C189.331 50.4613 187.795 50.5467 185.832 50.632C183.357 50.8027 181.651 50.9733 180.712 51.144C179.432 51.3147 178.451 51.5707 177.768 51.912C177.171 52.168 176.616 52.5093 176.104 52.936C175.677 53.3627 175.421 54.088 175.336 55.112C175.336 56.136 175.336 57.288 175.336 58.568C175.421 59.848 175.592 61.7253 175.848 64.2C176.189 67.272 176.019 72.5627 175.336 80.072C174.824 86.3013 174.696 90.0133 174.952 91.208C176.659 90.8667 180.456 90.9093 186.344 91.336C191.891 91.7627 195.005 91.848 195.688 91.592C196.883 90.9947 198.163 88.3493 199.528 83.656C200.893 78.8773 201.149 74.6107 200.296 70.856C199.443 67.3573 198.035 65.4373 196.072 65.096C194.963 64.9253 194.109 65.3093 193.512 66.248C193.341 66.5893 193.512 67.1867 194.024 68.04C195.475 70.1733 195.688 72.0507 194.664 73.672C194.067 74.5253 193.256 75.08 192.232 75.336C191.208 75.5067 190.099 75.336 188.904 74.824C187.112 73.9707 185.704 72.4773 184.68 70.344C183.741 68.2107 183.699 65.9067 184.552 63.432C185.149 61.384 186.344 59.72 188.136 58.44C190.013 57.16 192.147 56.4347 194.536 56.264C196.157 56.0933 197.736 56.264 199.272 56.776C200.893 57.2027 202.515 58.0987 204.136 59.464C205.757 60.744 207.037 62.408 207.976 64.456C208.915 66.4187 209.427 68.7653 209.512 71.496C209.683 74.1413 209.597 76.3173 209.256 78.024C209 79.6453 208.573 81.8213 207.976 84.552C207.293 87.7947 206.995 89.7573 207.08 90.44ZM279.452 5.31999C279.025 9.92799 278.812 16.3707 278.812 24.648C278.812 32.84 278.983 39.9227 279.324 45.896C279.495 48.456 279.409 50.9733 279.068 53.448C278.812 55.9227 278.257 58.184 277.404 60.232C276.636 62.1947 275.655 63.432 274.46 63.944C273.095 64.5413 271.857 64.2853 270.748 63.176C269.127 61.7253 266.951 56.8613 264.22 48.584C261.575 40.2213 260.337 35.1013 260.508 33.224C260.593 32.3707 260.935 31.688 261.532 31.176C262.3 30.4933 263.751 30.28 265.884 30.536C268.188 30.792 269.468 30.536 269.724 29.768C270.065 28.9147 269.34 28.0187 267.548 27.08C266.183 26.312 264.775 25.928 263.324 25.928C261.959 25.8427 261.063 26.1413 260.636 26.824C258.844 29.64 261.233 41.544 267.804 62.536C268.572 64.9253 269.553 68.0827 270.748 72.008C272.113 76.104 273.052 79.048 273.564 80.84C274.076 82.632 274.503 84.6373 274.844 86.856C275.185 88.9893 275.1 90.568 274.588 91.592C274.076 92.5307 273.18 93.2987 271.9 93.896C270.279 94.5787 263.708 94.92 252.188 94.92C247.409 94.92 243.143 94.8347 239.388 94.664C235.719 94.4933 233.543 94.2373 232.86 93.896H232.732C231.452 93.2987 230.556 92.5307 230.044 91.592C229.532 90.568 229.447 88.9893 229.788 86.856C230.129 84.6373 230.556 82.5893 231.068 80.712C231.665 78.8347 232.689 75.72 234.14 71.368C235.505 67.1867 236.444 64.2427 236.956 62.536C237.809 59.6347 238.492 57.3733 239.004 55.752C239.516 54.0453 240.199 51.6987 241.052 48.712C241.905 45.7253 242.545 43.2933 242.972 41.416C243.399 39.4533 243.783 37.4053 244.124 35.272C244.551 33.0533 244.721 31.2613 244.636 29.896C244.636 28.4453 244.423 27.4213 243.996 26.824C243.569 26.1413 242.673 25.8427 241.308 25.928C239.943 25.928 238.577 26.312 237.212 27.08C235.335 28.0187 234.567 28.9147 234.908 29.768C235.249 30.536 236.529 30.792 238.748 30.536C240.967 30.28 242.46 30.4933 243.228 31.176C243.825 31.688 244.167 32.3707 244.252 33.224C244.337 35.1867 243.015 40.3493 240.284 48.712C237.553 56.9893 235.42 61.8107 233.884 63.176C232.775 64.2853 231.58 64.5413 230.3 63.944C228.508 63.176 227.185 61.0427 226.332 57.544C225.479 53.96 225.18 50.0773 225.436 45.896C226.375 24.2213 226.204 11.2933 224.924 7.112C224.583 6.00267 224.753 4.97866 225.436 4.03999C226.545 2.67466 229.233 1.864 233.5 1.60799C237.852 1.352 243.825 1.48 251.42 1.992C254.748 2.248 259.612 2.12 266.012 1.60799C269.255 1.26666 271.943 1.13866 274.076 1.224C276.209 1.30933 277.703 1.77866 278.556 2.632C279.239 3.4 279.537 4.296 279.452 5.31999ZM275.74 46.024C275.484 40.0507 275.313 32.9253 275.228 24.648C275.228 16.3707 275.441 9.8 275.868 4.936C275.356 4.59466 272.156 4.68 266.268 5.19199C259.783 5.61866 254.748 5.74666 251.164 5.576C236.999 4.63733 229.361 4.85066 228.252 6.216C229.703 10.7387 229.959 23.88 229.02 45.64C228.849 48.5413 228.935 51.1867 229.276 53.576C229.617 55.9653 230.001 57.7147 230.428 58.824C230.94 59.9333 231.367 60.5733 231.708 60.744C232.647 59.72 234.311 55.5813 236.7 48.328C239.089 40.9893 240.412 36.2107 240.668 33.992C240.327 33.992 239.815 34.0347 239.132 34.12C235.121 34.5467 232.647 33.5227 231.708 31.048C231.111 29.768 231.153 28.488 231.836 27.208C232.604 25.928 233.841 24.8187 235.548 23.88C237.425 22.7707 239.516 22.2587 241.82 22.344C244.209 22.4293 245.916 23.24 246.94 24.776C247.708 25.9707 248.135 27.592 248.22 29.64C248.305 31.6027 248.007 34.2907 247.324 37.704C246.727 41.032 245.873 44.6587 244.764 48.584C243.655 52.5093 242.161 57.5013 240.284 63.56C239.601 65.864 238.663 68.8507 237.468 72.52C236.359 75.9333 235.548 78.4933 235.036 80.2C234.524 81.9067 234.055 83.656 233.628 85.448C233.201 87.1547 233.031 88.392 233.116 89.16C233.287 89.8427 233.671 90.3547 234.268 90.696C235.804 91.1227 241.863 91.336 252.444 91.336C263.025 91.336 269.041 91.1227 270.492 90.696C271.004 90.44 271.303 89.9707 271.388 89.288C271.559 88.52 271.473 87.3253 271.132 85.704C270.791 83.9973 270.364 82.3333 269.852 80.712C269.34 79.0053 268.529 76.4453 267.42 73.032C266.14 69.192 265.116 66.0347 264.348 63.56C262.556 57.8427 261.105 53.0213 259.996 49.096C258.972 45.1707 258.119 41.5013 257.436 38.088C256.753 34.6747 256.412 31.9013 256.412 29.768C256.497 27.6347 256.924 26.0133 257.692 24.904C258.716 23.2827 260.38 22.4293 262.684 22.344C265.073 22.2587 267.249 22.7707 269.212 23.88C270.919 24.8187 272.113 25.928 272.796 27.208C273.479 28.488 273.564 29.8107 273.052 31.176C272.028 33.5653 269.511 34.5467 265.5 34.12C264.817 34.0347 264.348 33.992 264.092 33.992C264.263 36.296 265.543 41.0747 267.932 48.328C270.321 55.5813 272.071 59.6773 273.18 60.616C273.521 60.5307 273.905 59.976 274.332 58.952C274.759 57.8427 275.143 56.136 275.484 53.832C275.825 51.4427 275.911 48.84 275.74 46.024Z" fill="#525252"/>
</svg>
