<svg width="994" height="1200" viewBox="0 0 994 1200" fill="none" xmlns="http://www.w3.org/2000/svg">
<g clip-path="url(#clip0_55_18)">
<g filter="url(#filter0_f_55_18)">
<path d="M370.075 602.376C353.853 150.283 100.599 63.9314 -24 77.2675V1199H994C742.45 1188.5 386.296 1054.47 370.075 602.376Z" fill="#B5E6D6"/>
</g>
<g filter="url(#filter1_f_55_18)">
<path d="M235.075 612.22C218.853 151.672 -34.4007 63.7057 -159 77.2912V1220L964.5 1201.5C712.95 1190.8 251.296 1072.77 235.075 612.22Z" fill="#61C2A2"/>
</g>
<g filter="url(#filter2_f_55_18)">
<path d="M122.724 646.22C107.793 198.555 -125.313 113.05 -240 126.255V1237L911.5 1225C679.963 1214.6 137.655 1093.89 122.724 646.22Z" fill="#268062"/>
</g>
<path d="M234.274 613V610.624C234.826 610.6 235.282 610.528 235.642 610.408C236.026 610.288 236.314 610.012 236.506 609.58C236.722 609.148 236.83 608.452 236.83 607.492V593.704C236.83 593.056 236.842 592.432 236.866 591.832C236.914 591.232 236.95 590.776 236.974 590.464C236.59 590.488 236.11 590.512 235.534 590.536C234.958 590.536 234.538 590.548 234.274 590.572V587.8H252.274L252.49 594.784H250.114C250.114 593.464 249.886 592.468 249.43 591.796C248.974 591.124 248.41 590.68 247.738 590.464C247.066 590.224 246.406 590.116 245.758 590.14L244.462 590.176C243.958 590.176 243.526 590.248 243.166 590.392C242.806 590.512 242.53 590.8 242.338 591.256C242.146 591.688 242.05 592.372 242.05 593.308V599.572H245.758L245.614 596.476H248.386V605.224H246.01C246.01 604.216 245.854 603.484 245.542 603.028C245.23 602.572 244.798 602.296 244.246 602.2C243.718 602.08 243.13 602.032 242.482 602.056H242.05V607.096C242.05 607.744 242.038 608.368 242.014 608.968C241.99 609.568 241.954 610.024 241.906 610.336C242.17 610.312 242.518 610.3 242.95 610.3C243.382 610.276 243.802 610.264 244.21 610.264C244.642 610.24 244.942 610.228 245.11 610.228V613H234.274ZM253.41 610.66C254.082 610.66 254.562 610.528 254.85 610.264C255.138 610 255.318 609.628 255.39 609.148C255.486 608.644 255.534 608.08 255.534 607.456V601.48C255.534 601.048 255.546 600.556 255.57 600.004C255.594 599.428 255.63 598.876 255.678 598.348C255.294 598.372 254.838 598.396 254.31 598.42C253.806 598.42 253.422 598.432 253.158 598.456V595.72C254.262 595.72 255.198 595.66 255.966 595.54C256.734 595.42 257.334 595.276 257.766 595.108C258.222 594.94 258.534 594.784 258.702 594.64H260.646V607.204C260.646 607.54 260.634 608.02 260.61 608.644C260.586 609.244 260.55 609.82 260.502 610.372C260.886 610.324 261.306 610.3 261.762 610.3C262.242 610.276 262.602 610.264 262.842 610.264V613H253.41V610.66ZM257.91 591.796C257.094 591.796 256.422 591.508 255.894 590.932C255.366 590.356 255.102 589.66 255.102 588.844C255.102 588.028 255.378 587.332 255.93 586.756C256.482 586.18 257.13 585.892 257.874 585.892C258.642 585.892 259.278 586.18 259.782 586.756C260.31 587.332 260.574 588.028 260.574 588.844C260.574 589.66 260.334 590.356 259.854 590.932C259.374 591.508 258.726 591.796 257.91 591.796ZM264.467 613V610.66C265.139 610.66 265.619 610.528 265.907 610.264C266.195 610 266.375 609.628 266.447 609.148C266.543 608.644 266.591 608.08 266.591 607.456V601.408C266.591 600.976 266.603 600.496 266.627 599.968C266.651 599.416 266.687 598.876 266.735 598.348C266.351 598.372 265.895 598.396 265.367 598.42C264.863 598.42 264.479 598.432 264.215 598.456V595.72C265.319 595.72 266.255 595.66 267.023 595.54C267.791 595.42 268.391 595.276 268.823 595.108C269.279 594.94 269.591 594.784 269.759 594.64H271.523C271.571 594.952 271.595 595.18 271.595 595.324C271.595 595.468 271.595 595.612 271.595 595.756C271.619 595.876 271.667 596.104 271.739 596.44C272.219 596.056 272.771 595.72 273.395 595.432C274.019 595.12 274.643 594.88 275.267 594.712C275.891 594.52 276.443 594.424 276.923 594.424C279.131 594.424 280.691 595.06 281.603 596.332C282.539 597.58 283.007 599.596 283.007 602.38V607.204C283.007 607.54 282.995 608.02 282.971 608.644C282.947 609.244 282.911 609.82 282.863 610.372C283.271 610.324 283.703 610.3 284.159 610.3C284.615 610.276 284.963 610.264 285.203 610.264V613H275.771V610.66C276.443 610.66 276.923 610.528 277.211 610.264C277.523 610 277.715 609.628 277.787 609.148C277.883 608.644 277.931 608.08 277.931 607.456L277.895 602.344C277.895 600.784 277.667 599.632 277.211 598.888C276.779 598.12 276.035 597.736 274.979 597.736C274.379 597.736 273.779 597.868 273.179 598.132C272.603 598.396 272.111 598.708 271.703 599.068C271.703 599.404 271.703 599.752 271.703 600.112C271.703 600.448 271.703 600.784 271.703 601.12V607.204C271.703 607.54 271.691 608.02 271.667 608.644C271.643 609.244 271.607 609.82 271.559 610.372C271.943 610.324 272.363 610.3 272.819 610.3C273.299 610.276 273.659 610.264 273.899 610.264V613H264.467ZM293.582 613.576C292.142 613.576 290.87 613.204 289.766 612.46C288.686 611.716 287.834 610.66 287.21 609.292C286.61 607.924 286.31 606.316 286.31 604.468C286.31 602.524 286.682 600.796 287.426 599.284C288.17 597.772 289.214 596.584 290.558 595.72C291.902 594.856 293.462 594.424 295.238 594.424C295.886 594.424 296.462 594.496 296.966 594.64C297.494 594.76 297.986 594.904 298.442 595.072V592.696C298.442 592.36 298.454 591.88 298.478 591.256C298.502 590.632 298.538 590.056 298.586 589.528C298.202 589.552 297.746 589.576 297.218 589.6C296.69 589.624 296.294 589.636 296.03 589.636V586.9C297.158 586.9 298.094 586.84 298.838 586.72C299.606 586.6 300.206 586.456 300.638 586.288C301.094 586.12 301.406 585.964 301.574 585.82H303.518V607.204C303.518 607.54 303.506 608.02 303.482 608.644C303.458 609.244 303.422 609.82 303.374 610.372C303.782 610.324 304.214 610.3 304.67 610.3C305.126 610.276 305.474 610.264 305.714 610.264V613H298.874C298.85 612.736 298.814 612.46 298.766 612.172C298.742 611.884 298.706 611.608 298.658 611.344C297.866 612.16 297.05 612.736 296.21 613.072C295.37 613.408 294.494 613.576 293.582 613.576ZM295.454 610.3C296.078 610.3 296.654 610.144 297.182 609.832C297.71 609.496 298.13 609.076 298.442 608.572C298.442 608.212 298.442 607.852 298.442 607.492C298.442 607.132 298.442 606.772 298.442 606.412V597.772C298.202 597.58 297.842 597.424 297.362 597.304C296.882 597.16 296.39 597.088 295.886 597.088C294.782 597.112 293.918 597.46 293.294 598.132C292.67 598.804 292.226 599.656 291.962 600.688C291.722 601.72 291.602 602.8 291.602 603.928C291.602 604.936 291.722 605.932 291.962 606.916C292.226 607.9 292.634 608.716 293.186 609.364C293.762 609.988 294.518 610.3 295.454 610.3ZM326.752 590.176C326.224 590.2 325.768 590.272 325.384 590.392C325 590.512 324.7 590.788 324.484 591.22C324.292 591.628 324.196 592.324 324.196 593.308V607.096C324.196 607.744 324.184 608.368 324.16 608.968C324.136 609.568 324.1 610.024 324.052 610.336C324.436 610.288 324.916 610.264 325.492 610.264C326.092 610.24 326.512 610.228 326.752 610.228V613H316.42V610.624C316.972 610.6 317.428 610.528 317.788 610.408C318.172 610.288 318.46 610.012 318.652 609.58C318.868 609.148 318.976 608.452 318.976 607.492V593.704C318.976 593.056 318.988 592.432 319.012 591.832C319.06 591.232 319.096 590.776 319.12 590.464C318.736 590.488 318.256 590.512 317.68 590.536C317.104 590.536 316.684 590.548 316.42 590.572V587.8H326.752V590.176ZM335.297 613.576C333.857 613.576 332.585 613.204 331.481 612.46C330.401 611.716 329.549 610.66 328.925 609.292C328.325 607.924 328.025 606.316 328.025 604.468C328.025 602.524 328.397 600.796 329.141 599.284C329.885 597.772 330.929 596.584 332.273 595.72C333.617 594.856 335.177 594.424 336.953 594.424C337.601 594.424 338.177 594.496 338.681 594.64C339.209 594.76 339.701 594.904 340.157 595.072V592.696C340.157 592.36 340.169 591.88 340.193 591.256C340.217 590.632 340.253 590.056 340.301 589.528C339.917 589.552 339.461 589.576 338.933 589.6C338.405 589.624 338.009 589.636 337.745 589.636V586.9C338.873 586.9 339.809 586.84 340.553 586.72C341.321 586.6 341.921 586.456 342.353 586.288C342.809 586.12 343.121 585.964 343.289 585.82H345.233V607.204C345.233 607.54 345.221 608.02 345.197 608.644C345.173 609.244 345.137 609.82 345.089 610.372C345.497 610.324 345.929 610.3 346.385 610.3C346.841 610.276 347.189 610.264 347.429 610.264V613H340.589C340.565 612.736 340.529 612.46 340.481 612.172C340.457 611.884 340.421 611.608 340.373 611.344C339.581 612.16 338.765 612.736 337.925 613.072C337.085 613.408 336.209 613.576 335.297 613.576ZM337.169 610.3C337.793 610.3 338.369 610.144 338.897 609.832C339.425 609.496 339.845 609.076 340.157 608.572C340.157 608.212 340.157 607.852 340.157 607.492C340.157 607.132 340.157 606.772 340.157 606.412V597.772C339.917 597.58 339.557 597.424 339.077 597.304C338.597 597.16 338.105 597.088 337.601 597.088C336.497 597.112 335.633 597.46 335.009 598.132C334.385 598.804 333.941 599.656 333.677 600.688C333.437 601.72 333.317 602.8 333.317 603.928C333.317 604.936 333.437 605.932 333.677 606.916C333.941 607.9 334.349 608.716 334.901 609.364C335.477 609.988 336.233 610.3 337.169 610.3ZM357.606 613.576C355.854 613.576 354.306 613.192 352.962 612.424C351.618 611.632 350.574 610.528 349.83 609.112C349.086 607.672 348.714 605.98 348.714 604.036C348.714 602.356 349.086 600.784 349.83 599.32C350.574 597.856 351.618 596.68 352.962 595.792C354.33 594.88 355.914 594.424 357.714 594.424C358.722 594.424 359.706 594.568 360.666 594.856C361.626 595.12 362.49 595.588 363.258 596.26C364.05 596.932 364.674 597.844 365.13 598.996C365.61 600.148 365.838 601.588 365.814 603.316L354.006 603.532C354.006 604.828 354.162 605.992 354.474 607.024C354.81 608.056 355.35 608.872 356.094 609.472C356.838 610.072 357.834 610.372 359.082 610.372C359.562 610.372 360.102 610.288 360.702 610.12C361.326 609.952 361.95 609.676 362.574 609.292C363.222 608.884 363.822 608.344 364.374 607.672L365.994 609.184C365.13 610.408 364.206 611.344 363.222 611.992C362.238 612.616 361.254 613.036 360.27 613.252C359.31 613.468 358.422 613.576 357.606 613.576ZM354.222 601.012H360.846C360.822 600.004 360.678 599.212 360.414 598.636C360.174 598.036 359.838 597.604 359.406 597.34C358.974 597.076 358.47 596.944 357.894 596.944C356.838 596.944 356.01 597.328 355.41 598.096C354.81 598.84 354.414 599.812 354.222 601.012ZM377.733 613C377.685 612.664 377.649 612.388 377.625 612.172C377.625 611.932 377.613 611.656 377.589 611.344C376.773 612.16 375.909 612.736 374.997 613.072C374.085 613.408 373.161 613.576 372.225 613.576C370.689 613.576 369.489 613.12 368.625 612.208C367.761 611.296 367.329 610.156 367.329 608.788C367.329 607.636 367.617 606.652 368.193 605.836C368.793 605.02 369.573 604.36 370.533 603.856C371.517 603.328 372.597 602.932 373.773 602.668C374.973 602.38 376.173 602.212 377.373 602.164V600.292C377.373 599.668 377.289 599.104 377.121 598.6C376.977 598.096 376.713 597.7 376.329 597.412C375.969 597.124 375.453 596.992 374.781 597.016C374.325 597.04 373.881 597.136 373.449 597.304C373.017 597.472 372.645 597.712 372.333 598.024C372.525 598.24 372.645 598.48 372.693 598.744C372.741 598.984 372.765 599.2 372.765 599.392C372.765 599.872 372.573 600.376 372.189 600.904C371.805 601.408 371.193 601.648 370.353 601.624C369.633 601.6 369.081 601.348 368.697 600.868C368.313 600.388 368.121 599.824 368.121 599.176C368.121 598.216 368.457 597.388 369.129 596.692C369.825 595.972 370.749 595.42 371.901 595.036C373.053 594.628 374.325 594.424 375.717 594.424C377.829 594.424 379.461 594.976 380.613 596.08C381.789 597.16 382.377 598.9 382.377 601.3C382.377 602.116 382.377 602.812 382.377 603.388C382.377 603.964 382.365 604.54 382.341 605.116C382.341 605.692 382.341 606.388 382.341 607.204C382.341 607.54 382.329 608.02 382.305 608.644C382.281 609.244 382.245 609.82 382.197 610.372C382.605 610.324 383.037 610.3 383.493 610.3C383.949 610.276 384.297 610.264 384.537 610.264V613H377.733ZM377.337 604.72C376.665 604.792 376.029 604.912 375.429 605.08C374.829 605.248 374.301 605.476 373.845 605.764C373.413 606.052 373.065 606.4 372.801 606.808C372.561 607.216 372.441 607.672 372.441 608.176C372.465 608.848 372.681 609.328 373.089 609.616C373.497 609.904 373.965 610.048 374.493 610.048C375.045 610.048 375.561 609.928 376.041 609.688C376.521 609.448 376.953 609.136 377.337 608.752C377.337 608.512 377.337 608.284 377.337 608.068C377.337 607.828 377.337 607.588 377.337 607.348C377.337 606.916 377.337 606.484 377.337 606.052C377.337 605.596 377.337 605.152 377.337 604.72ZM394.164 613.576C393.132 613.576 392.124 613.444 391.14 613.18C390.156 612.916 389.388 612.58 388.836 612.172L388.908 613.252H386.172L386.028 607.06H388.368C388.44 607.78 388.728 608.44 389.232 609.04C389.736 609.64 390.396 610.12 391.212 610.48C392.028 610.816 392.94 610.984 393.948 610.984C394.356 610.984 394.74 610.924 395.1 610.804C395.484 610.684 395.796 610.492 396.036 610.228C396.3 609.94 396.432 609.592 396.432 609.184C396.432 608.728 396.264 608.356 395.928 608.068C395.616 607.78 395.148 607.504 394.524 607.24C393.924 606.976 393.168 606.676 392.256 606.34C391.512 606.052 390.756 605.752 389.988 605.44C389.244 605.128 388.548 604.756 387.9 604.324C387.276 603.868 386.772 603.316 386.388 602.668C386.004 601.996 385.812 601.18 385.812 600.22C385.812 599.524 385.944 598.84 386.208 598.168C386.472 597.472 386.88 596.848 387.432 596.296C387.984 595.72 388.68 595.264 389.52 594.928C390.384 594.592 391.404 594.424 392.58 594.424C393.228 594.424 393.96 594.532 394.776 594.748C395.616 594.94 396.324 595.24 396.9 595.648V594.604H399.636V600.976H397.296C397.152 600.136 396.852 599.416 396.396 598.816C395.964 598.216 395.4 597.76 394.704 597.448C394.008 597.112 393.228 596.944 392.364 596.944C391.764 596.944 391.212 597.088 390.708 597.376C390.228 597.664 389.988 598.156 389.988 598.852C389.988 599.404 390.18 599.848 390.564 600.184C390.948 600.496 391.476 600.76 392.148 600.976C392.82 601.192 393.564 601.444 394.38 601.732C395.604 602.14 396.684 602.62 397.62 603.172C398.58 603.724 399.336 604.396 399.888 605.188C400.44 605.956 400.716 606.904 400.716 608.032C400.716 609.28 400.404 610.312 399.78 611.128C399.156 611.944 398.34 612.556 397.332 612.964C396.348 613.372 395.292 613.576 394.164 613.576ZM405.337 619.732L403.933 618.724C404.197 618.388 404.485 617.908 404.797 617.284C405.133 616.66 405.421 615.964 405.661 615.196C405.901 614.452 406.009 613.732 405.985 613.036C405.817 613.084 405.673 613.108 405.553 613.108C405.457 613.132 405.349 613.144 405.229 613.144C404.581 613.144 404.005 612.952 403.501 612.568C402.997 612.184 402.745 611.584 402.745 610.768C402.745 610.048 402.973 609.424 403.429 608.896C403.909 608.344 404.545 608.068 405.337 608.068C406.441 608.044 407.269 608.404 407.821 609.148C408.373 609.868 408.649 610.768 408.649 611.848C408.649 612.616 408.529 613.432 408.289 614.296C408.049 615.16 407.677 616.048 407.173 616.96C406.693 617.872 406.081 618.796 405.337 619.732ZM434.522 595.864C434.306 594.52 433.922 593.404 433.37 592.516C432.818 591.604 432.11 590.92 431.246 590.464C430.406 590.008 429.422 589.792 428.294 589.816C427.262 589.816 426.35 590.104 425.558 590.68C424.79 591.256 424.406 592 424.406 592.912C424.406 593.656 424.61 594.304 425.018 594.856C425.45 595.408 426.098 595.924 426.962 596.404C427.826 596.884 428.918 597.4 430.238 597.952C431.15 598.312 432.086 598.732 433.046 599.212C434.006 599.692 434.894 600.268 435.71 600.94C436.526 601.588 437.186 602.356 437.69 603.244C438.194 604.108 438.446 605.128 438.446 606.304C438.446 607.72 438.062 608.98 437.294 610.084C436.526 611.188 435.446 612.052 434.054 612.676C432.686 613.276 431.078 613.576 429.23 613.576C428.27 613.576 427.226 613.42 426.098 613.108C424.994 612.82 423.95 612.388 422.966 611.812L423.074 613.324H420.302V604.9H422.678C423.014 606.916 423.782 608.44 424.982 609.472C426.206 610.48 427.658 610.984 429.338 610.984C430.202 610.984 430.958 610.828 431.606 610.516C432.254 610.204 432.758 609.796 433.118 609.292C433.478 608.764 433.658 608.2 433.658 607.6C433.658 606.76 433.358 606.064 432.758 605.512C432.182 604.96 431.45 604.492 430.562 604.108C429.698 603.724 428.81 603.352 427.898 602.992C426.746 602.512 425.666 602.008 424.658 601.48C423.674 600.928 422.81 600.304 422.066 599.608C421.322 598.912 420.746 598.12 420.338 597.232C419.93 596.32 419.726 595.276 419.726 594.1C419.726 593.356 419.87 592.588 420.158 591.796C420.446 590.98 420.914 590.236 421.562 589.564C422.21 588.868 423.074 588.304 424.154 587.872C425.234 587.44 426.566 587.224 428.15 587.224C429.11 587.224 430.154 587.368 431.282 587.656C432.434 587.944 433.418 588.376 434.234 588.952L434.09 587.476H436.898V595.864H434.522ZM451.002 610.66C451.674 610.66 452.154 610.528 452.442 610.264C452.754 610 452.946 609.628 453.018 609.148C453.114 608.644 453.162 608.08 453.162 607.456L453.126 602.344C453.126 600.784 452.886 599.632 452.406 598.888C451.95 598.12 451.218 597.736 450.21 597.736C449.61 597.736 449.01 597.868 448.41 598.132C447.834 598.396 447.342 598.708 446.934 599.068V607.204C446.934 607.54 446.922 608.02 446.898 608.644C446.874 609.244 446.838 609.82 446.79 610.372C447.198 610.324 447.63 610.3 448.086 610.3C448.542 610.276 448.89 610.264 449.13 610.264V613H439.698V610.66C440.37 610.66 440.85 610.528 441.138 610.264C441.45 610 441.642 609.628 441.714 609.148C441.786 608.644 441.822 608.08 441.822 607.456V592.66C441.822 592.228 441.834 591.736 441.858 591.184C441.882 590.608 441.918 590.056 441.966 589.528C441.582 589.552 441.126 589.576 440.598 589.6C440.094 589.6 439.71 589.612 439.446 589.636V586.9C440.574 586.9 441.51 586.84 442.254 586.72C443.022 586.6 443.622 586.456 444.054 586.288C444.51 586.12 444.822 585.964 444.99 585.82H446.934V596.44C447.414 596.056 447.966 595.72 448.59 595.432C449.214 595.12 449.85 594.88 450.498 594.712C451.146 594.52 451.71 594.424 452.19 594.424C454.398 594.424 455.958 595.06 456.87 596.332C457.782 597.58 458.25 599.596 458.274 602.38V607.204C458.274 607.54 458.262 608.02 458.238 608.644C458.214 609.244 458.178 609.82 458.13 610.372C458.514 610.324 458.934 610.3 459.39 610.3C459.846 610.276 460.206 610.264 460.47 610.264V613H451.002V610.66ZM471.921 613C471.873 612.664 471.837 612.388 471.813 612.172C471.813 611.932 471.801 611.656 471.777 611.344C470.961 612.16 470.097 612.736 469.185 613.072C468.273 613.408 467.349 613.576 466.413 613.576C464.877 613.576 463.677 613.12 462.813 612.208C461.949 611.296 461.517 610.156 461.517 608.788C461.517 607.636 461.805 606.652 462.381 605.836C462.981 605.02 463.761 604.36 464.721 603.856C465.705 603.328 466.785 602.932 467.961 602.668C469.161 602.38 470.361 602.212 471.561 602.164V600.292C471.561 599.668 471.477 599.104 471.309 598.6C471.165 598.096 470.901 597.7 470.517 597.412C470.157 597.124 469.641 596.992 468.969 597.016C468.513 597.04 468.069 597.136 467.637 597.304C467.205 597.472 466.833 597.712 466.521 598.024C466.713 598.24 466.833 598.48 466.881 598.744C466.929 598.984 466.953 599.2 466.953 599.392C466.953 599.872 466.761 600.376 466.377 600.904C465.993 601.408 465.381 601.648 464.541 601.624C463.821 601.6 463.269 601.348 462.885 600.868C462.501 600.388 462.309 599.824 462.309 599.176C462.309 598.216 462.645 597.388 463.317 596.692C464.013 595.972 464.937 595.42 466.089 595.036C467.241 594.628 468.513 594.424 469.905 594.424C472.017 594.424 473.649 594.976 474.801 596.08C475.977 597.16 476.565 598.9 476.565 601.3C476.565 602.116 476.565 602.812 476.565 603.388C476.565 603.964 476.553 604.54 476.529 605.116C476.529 605.692 476.529 606.388 476.529 607.204C476.529 607.54 476.517 608.02 476.493 608.644C476.469 609.244 476.433 609.82 476.385 610.372C476.793 610.324 477.225 610.3 477.681 610.3C478.137 610.276 478.485 610.264 478.725 610.264V613H471.921ZM471.525 604.72C470.853 604.792 470.217 604.912 469.617 605.08C469.017 605.248 468.489 605.476 468.033 605.764C467.601 606.052 467.253 606.4 466.989 606.808C466.749 607.216 466.629 607.672 466.629 608.176C466.653 608.848 466.869 609.328 467.277 609.616C467.685 609.904 468.153 610.048 468.681 610.048C469.233 610.048 469.749 609.928 470.229 609.688C470.709 609.448 471.141 609.136 471.525 608.752C471.525 608.512 471.525 608.284 471.525 608.068C471.525 607.828 471.525 607.588 471.525 607.348C471.525 606.916 471.525 606.484 471.525 606.052C471.525 605.596 471.525 605.152 471.525 604.72ZM480.072 610.66C480.744 610.66 481.224 610.528 481.512 610.264C481.8 610 481.98 609.628 482.052 609.148C482.148 608.644 482.196 608.08 482.196 607.456V601.408C482.196 600.976 482.208 600.496 482.232 599.968C482.256 599.416 482.292 598.876 482.34 598.348C481.956 598.372 481.5 598.396 480.972 598.42C480.468 598.42 480.084 598.432 479.82 598.456V595.72H481.26C482.196 595.72 483.048 595.6 483.816 595.36C484.608 595.12 485.124 594.88 485.364 594.64H487.128C487.176 594.88 487.212 595.336 487.236 596.008C487.26 596.656 487.272 597.232 487.272 597.736C487.92 596.944 488.532 596.308 489.108 595.828C489.684 595.348 490.248 595 490.8 594.784C491.376 594.544 491.952 594.424 492.528 594.424C493.368 594.424 494.1 594.664 494.724 595.144C495.348 595.6 495.66 596.356 495.66 597.412C495.66 597.772 495.576 598.156 495.408 598.564C495.24 598.948 494.976 599.272 494.616 599.536C494.256 599.8 493.764 599.932 493.14 599.932C492.66 599.932 492.168 599.788 491.664 599.5C491.16 599.212 490.872 598.66 490.8 597.844C490.32 597.844 489.84 598.048 489.36 598.456C488.88 598.84 488.448 599.308 488.064 599.86C487.704 600.388 487.452 600.88 487.308 601.336V607.204C487.308 607.54 487.296 608.02 487.272 608.644C487.248 609.244 487.212 609.82 487.164 610.372C487.548 610.324 487.968 610.3 488.424 610.3C488.904 610.276 489.264 610.264 489.504 610.264V613H480.072V610.66ZM504.899 613.576C503.147 613.576 501.599 613.192 500.255 612.424C498.911 611.632 497.867 610.528 497.123 609.112C496.379 607.672 496.007 605.98 496.007 604.036C496.007 602.356 496.379 600.784 497.123 599.32C497.867 597.856 498.911 596.68 500.255 595.792C501.623 594.88 503.207 594.424 505.007 594.424C506.015 594.424 506.999 594.568 507.959 594.856C508.919 595.12 509.783 595.588 510.551 596.26C511.343 596.932 511.967 597.844 512.423 598.996C512.903 600.148 513.131 601.588 513.107 603.316L501.299 603.532C501.299 604.828 501.455 605.992 501.767 607.024C502.103 608.056 502.643 608.872 503.387 609.472C504.131 610.072 505.127 610.372 506.375 610.372C506.855 610.372 507.395 610.288 507.995 610.12C508.619 609.952 509.243 609.676 509.867 609.292C510.515 608.884 511.115 608.344 511.667 607.672L513.287 609.184C512.423 610.408 511.499 611.344 510.515 611.992C509.531 612.616 508.547 613.036 507.563 613.252C506.603 613.468 505.715 613.576 504.899 613.576ZM501.515 601.012H508.139C508.115 600.004 507.971 599.212 507.707 598.636C507.467 598.036 507.131 597.604 506.699 597.34C506.267 597.076 505.763 596.944 505.187 596.944C504.131 596.944 503.303 597.328 502.703 598.096C502.103 598.84 501.707 599.812 501.515 601.012ZM524.08 610.624C524.632 610.6 525.088 610.528 525.448 610.408C525.832 610.288 526.12 610.012 526.312 609.58C526.528 609.148 526.636 608.452 526.636 607.492V593.704C526.636 593.056 526.648 592.432 526.672 591.832C526.72 591.232 526.756 590.776 526.78 590.464C526.396 590.488 525.916 590.512 525.34 590.536C524.764 590.536 524.344 590.548 524.08 590.572V587.8C525.784 587.776 527.488 587.764 529.192 587.764C530.896 587.764 532.6 587.752 534.304 587.728C536.416 587.704 538.252 587.98 539.812 588.556C541.396 589.132 542.608 590.02 543.448 591.22C544.312 592.42 544.72 593.98 544.672 595.9C544.648 596.86 544.42 597.808 543.988 598.744C543.556 599.656 542.92 600.496 542.08 601.264C541.24 602.008 540.184 602.62 538.912 603.1C537.64 603.58 536.152 603.844 534.448 603.892C533.92 603.916 533.452 603.928 533.044 603.928C532.66 603.928 532.264 603.916 531.856 603.892V607.06C531.856 607.732 531.844 608.368 531.82 608.968C531.796 609.568 531.76 610.024 531.712 610.336C531.976 610.312 532.312 610.3 532.72 610.3C533.128 610.276 533.524 610.264 533.908 610.264C534.316 610.24 534.604 610.228 534.772 610.228V613H524.08V610.624ZM531.856 601.192C532.12 601.216 532.384 601.24 532.648 601.264C532.912 601.288 533.188 601.3 533.476 601.3C534.796 601.3 535.864 601.084 536.68 600.652C537.52 600.196 538.132 599.548 538.516 598.708C538.9 597.844 539.092 596.8 539.092 595.576C539.092 594.376 538.924 593.416 538.588 592.696C538.276 591.976 537.868 591.448 537.364 591.112C536.86 590.752 536.332 590.524 535.78 590.428C535.228 590.308 534.724 590.248 534.268 590.248C533.764 590.248 533.332 590.308 532.972 590.428C532.612 590.548 532.336 590.812 532.144 591.22C531.952 591.628 531.856 592.252 531.856 593.092V601.192ZM555.684 613C555.636 612.664 555.6 612.388 555.576 612.172C555.576 611.932 555.564 611.656 555.54 611.344C554.724 612.16 553.86 612.736 552.948 613.072C552.036 613.408 551.112 613.576 550.176 613.576C548.64 613.576 547.44 613.12 546.576 612.208C545.712 611.296 545.28 610.156 545.28 608.788C545.28 607.636 545.568 606.652 546.144 605.836C546.744 605.02 547.524 604.36 548.484 603.856C549.468 603.328 550.548 602.932 551.724 602.668C552.924 602.38 554.124 602.212 555.324 602.164V600.292C555.324 599.668 555.24 599.104 555.072 598.6C554.928 598.096 554.664 597.7 554.28 597.412C553.92 597.124 553.404 596.992 552.732 597.016C552.276 597.04 551.832 597.136 551.4 597.304C550.968 597.472 550.596 597.712 550.284 598.024C550.476 598.24 550.596 598.48 550.644 598.744C550.692 598.984 550.716 599.2 550.716 599.392C550.716 599.872 550.524 600.376 550.14 600.904C549.756 601.408 549.144 601.648 548.304 601.624C547.584 601.6 547.032 601.348 546.648 600.868C546.264 600.388 546.072 599.824 546.072 599.176C546.072 598.216 546.408 597.388 547.08 596.692C547.776 595.972 548.7 595.42 549.852 595.036C551.004 594.628 552.276 594.424 553.668 594.424C555.78 594.424 557.412 594.976 558.564 596.08C559.74 597.16 560.328 598.9 560.328 601.3C560.328 602.116 560.328 602.812 560.328 603.388C560.328 603.964 560.316 604.54 560.292 605.116C560.292 605.692 560.292 606.388 560.292 607.204C560.292 607.54 560.28 608.02 560.256 608.644C560.232 609.244 560.196 609.82 560.148 610.372C560.556 610.324 560.988 610.3 561.444 610.3C561.9 610.276 562.248 610.264 562.488 610.264V613H555.684ZM555.288 604.72C554.616 604.792 553.98 604.912 553.38 605.08C552.78 605.248 552.252 605.476 551.796 605.764C551.364 606.052 551.016 606.4 550.752 606.808C550.512 607.216 550.392 607.672 550.392 608.176C550.416 608.848 550.632 609.328 551.04 609.616C551.448 609.904 551.916 610.048 552.444 610.048C552.996 610.048 553.512 609.928 553.992 609.688C554.472 609.448 554.904 609.136 555.288 608.752C555.288 608.512 555.288 608.284 555.288 608.068C555.288 607.828 555.288 607.588 555.288 607.348C555.288 606.916 555.288 606.484 555.288 606.052C555.288 605.596 555.288 605.152 555.288 604.72ZM572.115 613.576C571.083 613.576 570.075 613.444 569.091 613.18C568.107 612.916 567.339 612.58 566.787 612.172L566.859 613.252H564.123L563.979 607.06H566.319C566.391 607.78 566.679 608.44 567.183 609.04C567.687 609.64 568.347 610.12 569.163 610.48C569.979 610.816 570.891 610.984 571.899 610.984C572.307 610.984 572.691 610.924 573.051 610.804C573.435 610.684 573.747 610.492 573.987 610.228C574.251 609.94 574.383 609.592 574.383 609.184C574.383 608.728 574.215 608.356 573.879 608.068C573.567 607.78 573.099 607.504 572.475 607.24C571.875 606.976 571.119 606.676 570.207 606.34C569.463 606.052 568.707 605.752 567.939 605.44C567.195 605.128 566.499 604.756 565.851 604.324C565.227 603.868 564.723 603.316 564.339 602.668C563.955 601.996 563.763 601.18 563.763 600.22C563.763 599.524 563.895 598.84 564.159 598.168C564.423 597.472 564.831 596.848 565.383 596.296C565.935 595.72 566.631 595.264 567.471 594.928C568.335 594.592 569.355 594.424 570.531 594.424C571.179 594.424 571.911 594.532 572.727 594.748C573.567 594.94 574.275 595.24 574.851 595.648V594.604H577.587V600.976H575.247C575.103 600.136 574.803 599.416 574.347 598.816C573.915 598.216 573.351 597.76 572.655 597.448C571.959 597.112 571.179 596.944 570.315 596.944C569.715 596.944 569.163 597.088 568.659 597.376C568.179 597.664 567.939 598.156 567.939 598.852C567.939 599.404 568.131 599.848 568.515 600.184C568.899 600.496 569.427 600.76 570.099 600.976C570.771 601.192 571.515 601.444 572.331 601.732C573.555 602.14 574.635 602.62 575.571 603.172C576.531 603.724 577.287 604.396 577.839 605.188C578.391 605.956 578.667 606.904 578.667 608.032C578.667 609.28 578.355 610.312 577.731 611.128C577.107 611.944 576.291 612.556 575.283 612.964C574.299 613.372 573.243 613.576 572.115 613.576ZM588.868 613.576C587.836 613.576 586.828 613.444 585.844 613.18C584.86 612.916 584.092 612.58 583.54 612.172L583.612 613.252H580.876L580.732 607.06H583.072C583.144 607.78 583.432 608.44 583.936 609.04C584.44 609.64 585.1 610.12 585.916 610.48C586.732 610.816 587.644 610.984 588.652 610.984C589.06 610.984 589.444 610.924 589.804 610.804C590.188 610.684 590.5 610.492 590.74 610.228C591.004 609.94 591.136 609.592 591.136 609.184C591.136 608.728 590.968 608.356 590.632 608.068C590.32 607.78 589.852 607.504 589.228 607.24C588.628 606.976 587.872 606.676 586.96 606.34C586.216 606.052 585.46 605.752 584.692 605.44C583.948 605.128 583.252 604.756 582.604 604.324C581.98 603.868 581.476 603.316 581.092 602.668C580.708 601.996 580.516 601.18 580.516 600.22C580.516 599.524 580.648 598.84 580.912 598.168C581.176 597.472 581.584 596.848 582.136 596.296C582.688 595.72 583.384 595.264 584.224 594.928C585.088 594.592 586.108 594.424 587.284 594.424C587.932 594.424 588.664 594.532 589.48 594.748C590.32 594.94 591.028 595.24 591.604 595.648V594.604H594.34V600.976H592C591.856 600.136 591.556 599.416 591.1 598.816C590.668 598.216 590.104 597.76 589.408 597.448C588.712 597.112 587.932 596.944 587.068 596.944C586.468 596.944 585.916 597.088 585.412 597.376C584.932 597.664 584.692 598.156 584.692 598.852C584.692 599.404 584.884 599.848 585.268 600.184C585.652 600.496 586.18 600.76 586.852 600.976C587.524 601.192 588.268 601.444 589.084 601.732C590.308 602.14 591.388 602.62 592.324 603.172C593.284 603.724 594.04 604.396 594.592 605.188C595.144 605.956 595.42 606.904 595.42 608.032C595.42 609.28 595.108 610.312 594.484 611.128C593.86 611.944 593.044 612.556 592.036 612.964C591.052 613.372 589.996 613.576 588.868 613.576ZM597.34 610.66C598.012 610.66 598.492 610.528 598.78 610.264C599.068 610 599.248 609.628 599.32 609.148C599.416 608.644 599.464 608.08 599.464 607.456V601.48C599.464 601.048 599.476 600.556 599.5 600.004C599.524 599.428 599.56 598.876 599.608 598.348C599.224 598.372 598.768 598.396 598.24 598.42C597.736 598.42 597.352 598.432 597.088 598.456V595.72C598.192 595.72 599.128 595.66 599.896 595.54C600.664 595.42 601.264 595.276 601.696 595.108C602.152 594.94 602.464 594.784 602.632 594.64H604.576V607.204C604.576 607.54 604.564 608.02 604.54 608.644C604.516 609.244 604.48 609.82 604.432 610.372C604.816 610.324 605.236 610.3 605.692 610.3C606.172 610.276 606.532 610.264 606.772 610.264V613H597.34V610.66ZM601.84 591.796C601.024 591.796 600.352 591.508 599.824 590.932C599.296 590.356 599.032 589.66 599.032 588.844C599.032 588.028 599.308 587.332 599.86 586.756C600.412 586.18 601.06 585.892 601.804 585.892C602.572 585.892 603.208 586.18 603.712 586.756C604.24 587.332 604.504 588.028 604.504 588.844C604.504 589.66 604.264 590.356 603.784 590.932C603.304 591.508 602.656 591.796 601.84 591.796ZM617.218 613.576C615.49 613.576 613.93 613.204 612.538 612.46C611.146 611.716 610.042 610.66 609.226 609.292C608.434 607.9 608.038 606.268 608.038 604.396C608.038 602.404 608.446 600.664 609.262 599.176C610.102 597.664 611.206 596.5 612.574 595.684C613.966 594.844 615.478 594.424 617.11 594.424C618.838 594.424 620.386 594.796 621.754 595.54C623.122 596.284 624.202 597.352 624.994 598.744C625.786 600.112 626.182 601.756 626.182 603.676C626.182 605.692 625.798 607.444 625.03 608.932C624.262 610.42 623.206 611.572 621.862 612.388C620.518 613.18 618.97 613.576 617.218 613.576ZM617.362 611.02C618.322 610.996 619.042 610.66 619.522 610.012C620.026 609.364 620.374 608.548 620.566 607.564C620.758 606.58 620.854 605.584 620.854 604.576C620.854 603.688 620.782 602.788 620.638 601.876C620.518 600.964 620.314 600.136 620.026 599.392C619.738 598.648 619.342 598.048 618.838 597.592C618.358 597.136 617.758 596.92 617.038 596.944C616.102 596.968 615.358 597.304 614.806 597.952C614.278 598.6 613.894 599.416 613.654 600.4C613.438 601.36 613.33 602.368 613.33 603.424C613.33 604.648 613.462 605.848 613.726 607.024C613.99 608.2 614.41 609.172 614.986 609.94C615.586 610.684 616.378 611.044 617.362 611.02ZM628.068 613V610.66C628.74 610.66 629.22 610.528 629.508 610.264C629.796 610 629.976 609.628 630.048 609.148C630.144 608.644 630.192 608.08 630.192 607.456V601.408C630.192 600.976 630.204 600.496 630.228 599.968C630.252 599.416 630.288 598.876 630.336 598.348C629.952 598.372 629.496 598.396 628.968 598.42C628.464 598.42 628.08 598.432 627.816 598.456V595.72C628.92 595.72 629.856 595.66 630.624 595.54C631.392 595.42 631.992 595.276 632.424 595.108C632.88 594.94 633.192 594.784 633.36 594.64H635.124C635.172 594.952 635.196 595.18 635.196 595.324C635.196 595.468 635.196 595.612 635.196 595.756C635.22 595.876 635.268 596.104 635.34 596.44C635.82 596.056 636.372 595.72 636.996 595.432C637.62 595.12 638.244 594.88 638.868 594.712C639.492 594.52 640.044 594.424 640.524 594.424C642.732 594.424 644.292 595.06 645.204 596.332C646.14 597.58 646.608 599.596 646.608 602.38V607.204C646.608 607.54 646.596 608.02 646.572 608.644C646.548 609.244 646.512 609.82 646.464 610.372C646.872 610.324 647.304 610.3 647.76 610.3C648.216 610.276 648.564 610.264 648.804 610.264V613H639.372V610.66C640.044 610.66 640.524 610.528 640.812 610.264C641.124 610 641.316 609.628 641.388 609.148C641.484 608.644 641.532 608.08 641.532 607.456L641.496 602.344C641.496 600.784 641.268 599.632 640.812 598.888C640.38 598.12 639.636 597.736 638.58 597.736C637.98 597.736 637.38 597.868 636.78 598.132C636.204 598.396 635.712 598.708 635.304 599.068C635.304 599.404 635.304 599.752 635.304 600.112C635.304 600.448 635.304 600.784 635.304 601.12V607.204C635.304 607.54 635.292 608.02 635.268 608.644C635.244 609.244 635.208 609.82 635.16 610.372C635.544 610.324 635.964 610.3 636.42 610.3C636.9 610.276 637.26 610.264 637.5 610.264V613H628.068ZM652.971 613.576C652.203 613.576 651.567 613.3 651.063 612.748C650.583 612.196 650.343 611.536 650.343 610.768C650.343 610 650.607 609.34 651.135 608.788C651.663 608.236 652.275 607.96 652.971 607.96C653.715 607.96 654.327 608.236 654.807 608.788C655.311 609.34 655.563 610 655.563 610.768C655.563 611.536 655.323 612.196 654.843 612.748C654.387 613.3 653.763 613.576 652.971 613.576ZM660.653 613.576C659.885 613.576 659.249 613.3 658.745 612.748C658.265 612.196 658.025 611.536 658.025 610.768C658.025 610 658.289 609.34 658.817 608.788C659.345 608.236 659.957 607.96 660.653 607.96C661.397 607.96 662.009 608.236 662.489 608.788C662.993 609.34 663.245 610 663.245 610.768C663.245 611.536 663.005 612.196 662.525 612.748C662.069 613.3 661.445 613.576 660.653 613.576ZM668.336 613.576C667.568 613.576 666.932 613.3 666.428 612.748C665.948 612.196 665.708 611.536 665.708 610.768C665.708 610 665.972 609.34 666.5 608.788C667.028 608.236 667.64 607.96 668.336 607.96C669.08 607.96 669.692 608.236 670.172 608.788C670.676 609.34 670.928 610 670.928 610.768C670.928 611.536 670.688 612.196 670.208 612.748C669.752 613.3 669.128 613.576 668.336 613.576Z" fill="#525252"/>
</g>
<defs>
<filter id="filter0_f_55_18" x="-104" y="-4" width="1178" height="1283" filterUnits="userSpaceOnUse" color-interpolation-filters="sRGB">
<feFlood flood-opacity="0" result="BackgroundImageFix"/>
<feBlend mode="normal" in="SourceGraphic" in2="BackgroundImageFix" result="shape"/>
<feGaussianBlur stdDeviation="40" result="effect1_foregroundBlur_55_18"/>
</filter>
<filter id="filter1_f_55_18" x="-239" y="-4" width="1283.5" height="1304" filterUnits="userSpaceOnUse" color-interpolation-filters="sRGB">
<feFlood flood-opacity="0" result="BackgroundImageFix"/>
<feBlend mode="normal" in="SourceGraphic" in2="BackgroundImageFix" result="shape"/>
<feGaussianBlur stdDeviation="40" result="effect1_foregroundBlur_55_18"/>
</filter>
<filter id="filter2_f_55_18" x="-320" y="45" width="1311.5" height="1272" filterUnits="userSpaceOnUse" color-interpolation-filters="sRGB">
<feFlood flood-opacity="0" result="BackgroundImageFix"/>
<feBlend mode="normal" in="SourceGraphic" in2="BackgroundImageFix" result="shape"/>
<feGaussianBlur stdDeviation="40" result="effect1_foregroundBlur_55_18"/>
</filter>
<clipPath id="clip0_55_18">
<rect width="994" height="1200" fill="white"/>
</clipPath>
</defs>
</svg>
